<svg width="423" height="137" viewBox="0 0 423 137" fill="none" xmlns="http://www.w3.org/2000/svg">
<path d="M131.678 48.488V86H122.358V48.488H107.87V41.2831H146.166V48.488H131.678ZM179.471 86.6265C173.31 86.6265 168.585 85.1386 165.296 82.1627C162.059 79.1345 160.441 74.8273 160.441 69.241V41.2831H169.76V68.5361C169.76 72.0863 170.595 74.7751 172.266 76.6024C173.989 78.3775 176.469 79.2651 179.706 79.2651C183.047 79.2651 185.605 78.3253 187.38 76.4458C189.208 74.5141 190.121 71.7731 190.121 68.2229V41.2831H199.519V68.7711C199.519 74.4618 197.77 78.8735 194.272 82.006C190.774 85.0863 185.84 86.6265 179.471 86.6265ZM253.985 73.0783C253.985 77.4639 252.367 80.8313 249.13 83.1807C245.893 85.4779 241.116 86.6265 234.799 86.6265C229.056 86.6265 224.566 85.6084 221.329 83.5723C218.092 81.5361 216.003 78.4558 215.064 74.3313L224.07 72.8434C224.696 75.1928 225.897 76.9157 227.672 78.012C229.447 79.1084 231.927 79.6566 235.112 79.6566C241.638 79.6566 244.901 77.6466 244.901 73.6265C244.901 72.3735 244.509 71.3293 243.726 70.494C242.995 69.6586 241.951 68.9799 240.594 68.4578C239.236 67.8835 236.626 67.2048 232.762 66.4217C229.421 65.6386 227.072 65.012 225.714 64.5422C224.409 64.0723 223.234 63.5241 222.19 62.8976C221.146 62.2189 220.232 61.4357 219.449 60.5482C218.718 59.6606 218.144 58.6165 217.726 57.4157C217.361 56.1626 217.178 54.7269 217.178 53.1084C217.178 49.0884 218.692 46.008 221.72 43.8675C224.748 41.6747 229.16 40.5783 234.955 40.5783C240.489 40.5783 244.64 41.4659 247.407 43.241C250.226 44.9639 252.027 47.8353 252.811 51.8554L243.726 53.0301C243.256 51.0984 242.317 49.6626 240.907 48.7229C239.497 47.7309 237.461 47.2349 234.799 47.2349C229.108 47.2349 226.262 49.01 226.262 52.5602C226.262 53.7088 226.55 54.6747 227.124 55.4578C227.75 56.1888 228.638 56.8153 229.786 57.3373C230.987 57.8594 233.415 58.512 237.07 59.2952C241.351 60.1827 244.405 61.0181 246.232 61.8012C248.112 62.5843 249.574 63.498 250.618 64.5422C251.714 65.5341 252.55 66.7349 253.124 68.1446C253.698 69.5542 253.985 71.1988 253.985 73.0783ZM301.544 86L285.49 65.4819L279.93 69.7108V86H270.611V41.2831H279.93V61.5663L300.056 41.2831H311.02L291.912 60.2349L312.587 86H301.544ZM327.27 86V41.2831H362.432V48.488H336.589V59.7651H360.475V66.9699H336.589V78.7952H363.685V86H327.27ZM411.01 86L400.594 69.006H389.63V86H380.311V41.2831H402.63C407.955 41.2831 412.054 42.4317 414.925 44.7289C417.849 47.0261 419.311 50.3153 419.311 54.5964C419.311 57.7289 418.423 60.4438 416.648 62.741C414.873 64.9859 412.471 66.4739 409.443 67.2048L421.504 86H411.01ZM409.913 54.988C409.913 50.7068 407.146 48.5663 401.612 48.5663H389.63V61.7229H401.925C404.536 61.7229 406.52 61.1486 407.877 60C409.235 58.7992 409.913 57.1285 409.913 54.988Z" fill="#1E0CF3"/>
<path d="M60.4496 40H92.1787C92.1787 40 92.1787 53.9499 92.1787 74.4644C92.1787 94.979 68.1083 101.27 51.1496 94.979C47.13 93.4878 37.1997 88.1408 37.1997 88.1408L42.9438 91.1416C42.7741 94.2519 43.6641 95.6954 46.7732 97.7142C43.6564 98.2988 42.2052 98.958 40.2085 100.723C35.6587 104.437 35.3097 111.84 36.1056 114.126C38.9056 121.501 42.394 123.484 50.8761 123.426V121.511C35.285 118.776 39.6615 105.099 49.782 103.185H54.1584C66.1936 106.741 67.5612 120.417 60.9966 129.17C47.3202 142.573 30.3615 138.196 18.0527 120.417C6.48329 120.676 2.49316 120.095 0 117.682C5.51518 116.563 7.47246 116.391 14.2235 113.852C12.8558 97.7142 10.9411 91.6966 13.4026 73.3703C18.0526 54.4969 30.3616 42.7353 50.3291 40.2735V46.2911H51.1496C51.1496 46.2911 53.1868 43.3991 54.979 42.1882C56.8208 40.9438 60.4496 40 60.4496 40Z" fill="#1E0CF3"/>
<circle cx="28.4465" cy="73.6437" r="3.55585" fill="white"/>
</svg>
