<svg width="292" height="263" viewBox="0 0 292 263" fill="none" xmlns="http://www.w3.org/2000/svg">
<path d="M22.6265 194.373V229H14.0241V194.373H0.650602V187.723H36V194.373H22.6265ZM66.7432 229.578C61.0565 229.578 56.695 228.205 53.6589 225.458C50.6709 222.663 49.177 218.687 49.177 213.53V187.723H57.7794V212.88C57.7794 216.157 58.5505 218.639 60.0926 220.325C61.683 221.964 63.9721 222.783 66.9601 222.783C70.0444 222.783 72.4059 221.916 74.0444 220.181C75.7312 218.398 76.5745 215.867 76.5745 212.59V187.723H85.2492V213.096C85.2492 218.349 83.6348 222.422 80.4059 225.313C77.177 228.157 72.6227 229.578 66.7432 229.578ZM135.526 217.072C135.526 221.12 134.032 224.229 131.044 226.398C128.056 228.518 123.646 229.578 117.815 229.578C112.514 229.578 108.369 228.639 105.381 226.759C102.393 224.88 100.466 222.036 99.5982 218.229L107.911 216.855C108.49 219.024 109.598 220.614 111.237 221.627C112.875 222.639 115.164 223.145 118.104 223.145C124.128 223.145 127.14 221.289 127.14 217.578C127.14 216.422 126.779 215.458 126.056 214.687C125.381 213.916 124.417 213.289 123.164 212.807C121.911 212.277 119.502 211.651 115.936 210.928C112.851 210.205 110.683 209.627 109.43 209.193C108.225 208.759 107.14 208.253 106.177 207.675C105.213 207.048 104.369 206.325 103.646 205.506C102.972 204.687 102.442 203.723 102.056 202.614C101.719 201.458 101.55 200.133 101.55 198.639C101.55 194.928 102.948 192.084 105.743 190.108C108.538 188.084 112.61 187.072 117.96 187.072C123.068 187.072 126.899 187.892 129.454 189.53C132.056 191.12 133.719 193.771 134.442 197.482L126.056 198.566C125.622 196.783 124.755 195.458 123.454 194.59C122.152 193.675 120.273 193.217 117.815 193.217C112.562 193.217 109.936 194.855 109.936 198.133C109.936 199.193 110.201 200.084 110.731 200.807C111.309 201.482 112.128 202.06 113.189 202.542C114.297 203.024 116.538 203.627 119.911 204.349C123.863 205.169 126.683 205.94 128.369 206.663C130.104 207.386 131.454 208.229 132.418 209.193C133.43 210.108 134.201 211.217 134.731 212.518C135.261 213.819 135.526 215.337 135.526 217.072ZM179.427 229L164.607 210.06L159.475 213.964V229H150.872V187.723H159.475V206.446L178.053 187.723H188.174L170.535 205.217L189.619 229H179.427ZM203.173 229V187.723H235.631V194.373H211.776V204.783H233.824V211.434H211.776V222.349H236.788V229H203.173ZM280.471 229L270.857 213.313H260.737V229H252.134V187.723H272.737C277.652 187.723 281.435 188.783 284.086 190.904C286.785 193.024 288.134 196.06 288.134 200.012C288.134 202.904 287.315 205.41 285.676 207.53C284.038 209.602 281.821 210.976 279.026 211.651L290.158 229H280.471ZM279.459 200.373C279.459 196.422 276.905 194.446 271.797 194.446H260.737V206.59H272.086C274.496 206.59 276.327 206.06 277.58 205C278.833 203.892 279.459 202.349 279.459 200.373Z" fill="white"/>
<path d="M169.957 0H222.948C222.948 0 222.948 23.2978 222.948 57.5592C222.948 91.8206 182.748 102.327 154.425 91.8206C147.712 89.3302 131.127 80.4001 131.127 80.4001L140.721 85.4117C140.437 90.6062 141.924 93.0171 147.116 96.3887C141.911 97.365 139.487 98.4659 136.152 101.414C128.554 107.617 127.971 119.98 129.3 123.798C133.976 136.115 139.802 139.427 153.968 139.33V136.132C127.93 131.564 135.239 108.723 152.141 105.525H159.45C179.55 111.464 181.834 134.305 170.871 148.923C148.03 171.307 119.707 163.998 99.15 134.305C79.8278 134.737 73.1638 133.768 69 129.737C78.2109 127.868 81.4798 127.582 92.7546 123.341C90.4705 96.3887 87.2727 86.3387 91.3838 55.7319C99.1497 24.2114 119.707 4.56819 153.055 0.456819V10.5068H154.425C154.425 10.5068 157.828 5.67691 160.821 3.65455C163.897 1.57624 169.957 0 169.957 0Z" fill="white"/>
<circle cx="116.509" cy="56.1886" r="5.93864" fill="#1E0CF3"/>
</svg>
