<svg width="29" height="26" viewBox="0 0 29 26" fill="none" xmlns="http://www.w3.org/2000/svg">
<path d="M28.1749 0.510781C27.8805 0.260248 27.5222 0.0938733 27.1388 0.0296739C26.7554 -0.0345255 26.3615 0.00589653 25.9997 0.146563L1.35504 9.69035C0.92555 9.85674 0.562253 10.1557 0.3195 10.5426C0.0767474 10.9295 -0.0324109 11.3834 0.00835499 11.8365C0.0491209 12.2896 0.237619 12.7176 0.545652 13.0563C0.853684 13.395 1.26469 13.6263 1.71719 13.7156L7.97712 14.95V22.6573C7.97675 23.074 8.10183 23.4814 8.33653 23.828C8.57122 24.1745 8.90497 24.4447 9.29552 24.6041C9.68606 24.7636 10.1158 24.8053 10.5304 24.7238C10.945 24.6423 11.3257 24.4414 11.6243 24.1465L15.0887 20.7317L20.3468 25.2926C20.7339 25.6315 21.2334 25.819 21.7511 25.8197C21.9762 25.8194 22.1998 25.7845 22.4139 25.7161C22.767 25.6057 23.0846 25.4059 23.335 25.1368C23.5853 24.8676 23.7597 24.5384 23.8407 24.1821L28.8634 2.57749C28.9509 2.20389 28.933 1.81381 28.8116 1.44953C28.6903 1.08524 28.4701 0.760646 28.1749 0.510913V0.510781ZM8.79782 12.9638L2.13648 11.6506L20.7886 4.42728L8.79782 12.9638ZM10.1137 22.6562V16.4159L13.4814 19.3372L10.1137 22.6562ZM21.7581 23.7115L10.756 14.1676L26.5991 2.88866L21.7581 23.7115Z" fill="black"/>
</svg>
